<svg width="646" height="197" viewBox="0 0 646 197" fill="none" xmlns="http://www.w3.org/2000/svg">
<path d="M646 148.475L572.904 196.078H0V47.6164H572.904L646 0V148.475Z" fill="black"/>
<path d="M85.9405 118.876V130.461H62.4545V149.391H48.9336V95.7314H89.6316V107.489H62.4545V118.836L85.9405 118.876Z" fill="white"/>
<path d="M99.7676 149.391V95.7314H113.289V137.606H140.33V149.351L99.7676 149.391Z" fill="white"/>
<path d="M204.786 122.59C204.786 138.192 192.333 150.427 175.757 150.427C159.18 150.427 146.809 138.126 146.809 122.59C146.809 107.055 159.275 94.6738 175.77 94.6738C192.266 94.6738 204.786 106.975 204.786 122.59ZM190.954 122.59C190.954 114.146 184.613 107.055 175.757 107.055C166.901 107.055 160.559 114.146 160.559 122.59C160.559 131.034 166.914 138.153 175.77 138.153C184.626 138.153 190.954 131.021 190.954 122.59Z" fill="white"/>
<path d="M272.192 122.59C272.192 138.192 259.726 150.427 243.149 150.427C226.572 150.427 214.201 138.126 214.201 122.59C214.201 107.055 226.667 94.6738 243.149 94.6738C259.631 94.6738 272.192 106.975 272.192 122.59ZM258.36 122.59C258.36 114.146 252.005 107.055 243.149 107.055C234.293 107.055 227.952 114.146 227.952 122.59C227.952 131.034 234.307 138.153 243.149 138.153C251.992 138.153 258.36 131.021 258.36 122.59Z" fill="white"/>
<path d="M334.425 122.429C334.425 138.335 322.039 149.391 304.908 149.391H282.883V95.7314H304.908C322.039 95.7314 334.425 106.734 334.425 122.429ZM320.593 122.429C320.593 114.144 313.765 107.768 304.908 107.768H296.471V137.407H304.908C306.951 137.47 308.986 137.128 310.891 136.402C312.796 135.676 314.532 134.582 315.996 133.184C317.46 131.786 318.621 130.113 319.411 128.265C320.201 126.417 320.603 124.432 320.593 122.429Z" fill="white"/>
<path d="M391.852 149.393L391.284 142.925C387.35 147.657 381.631 150.493 373.991 150.493C356.874 150.493 344.881 138.563 344.881 123.134C344.881 106.418 357.428 94.6738 374.154 94.6738C387.512 94.6738 399.086 102.083 401.425 114.862H387.187C384.767 108.632 379.305 106.909 374.397 106.909C365.068 106.909 358.631 113.378 358.631 122.815C358.631 131.246 364.824 138.1 374.559 138.1C377.425 138.186 380.255 137.459 382.709 136.006C385.163 134.553 387.136 132.435 388.391 129.908L372.707 129.748V119.263H401.979V149.38L391.852 149.393Z" fill="white"/>
<path d="M425.138 149.391H410.672L433.914 95.4668H446.856L470.014 149.391H455.657L451.964 140.112H428.763L425.138 149.391ZM433.251 128.818H447.408L440.323 110.989L433.251 128.818Z" fill="white"/>
<path d="M499.128 149.391H485.605V107.661H468.082V95.7314H516.502V107.661H499.128V149.391Z" fill="white"/>
<path d="M564.425 117.139V128.499H540.209V137.779H567.953V149.364H526.617V95.7314H567.953V107.33H540.209V117.099L564.425 117.139Z" fill="white"/>
</svg>
