<svg width="956" height="129" viewBox="0 0 956 129" fill="none" xmlns="http://www.w3.org/2000/svg">
<path d="M928.959 41.5657H911.6V32.9656H955.556V41.5657H938.196V86.3175H928.641V41.5657H928.959ZM861.433 78.5138L867.485 71.6657C872.9 76.1249 878.474 78.5138 885.482 78.5138C891.693 78.5138 896.311 75.8064 896.311 71.6657C896.311 67.8434 893.604 65.6138 882.933 63.2249C870.67 60.5175 863.822 57.1731 863.822 47.4582V47.1398C863.822 37.9027 871.944 31.5323 883.252 31.5323C891.693 31.5323 898.222 33.9212 904.115 38.3805L898.7 45.5472C893.604 41.8842 888.507 40.1323 883.093 40.1323C877.041 40.1323 873.219 42.8398 873.219 46.3435V46.6619C873.219 50.8027 876.563 52.7138 887.552 55.1027C899.815 57.8101 905.708 61.9508 905.708 70.7101V71.0286C905.708 81.2212 897.267 87.1138 885.322 87.1138C876.722 86.9545 868.441 84.2471 861.433 78.5138ZM828.307 65.136L807.763 32.6472H819.07L833.085 56.2175L847.419 32.6472H858.248L837.704 64.9768V86.4768H828.148V65.136H828.307ZM776.707 32.4879H786.263V77.5582H814.611V86.1583H776.707V32.4879ZM749.474 64.8175L740.237 43.3175L731 64.8175H749.474ZM735.778 32.3286H744.696L768.585 86.3175H758.393L752.978 73.4175H727.656L721.922 86.3175H712.367L735.778 32.3286ZM689.752 41.5657H672.711V32.9656H716.667V41.5657H699.626V86.3175H689.752V41.5657ZM658.378 64.8175L649.141 43.3175L639.904 64.8175H658.378ZM644.682 32.3286H653.6L677.489 86.3175H667.615L662.2 73.4175H636.878L631.144 86.3175H621.111L644.682 32.3286ZM567.441 59.7212C567.441 44.1138 578.748 31.6916 595.152 31.6916C605.026 31.6916 611.237 35.3545 616.333 40.1323L610.282 46.9805C605.822 43.1583 601.363 40.4508 594.993 40.4508C584.8 40.4508 576.996 48.8916 576.996 59.2434V59.562C576.996 70.0731 584.482 78.6731 594.993 78.6731C601.522 78.6731 605.822 75.9657 610.6 71.8249L616.652 78.036C610.919 83.7694 604.707 87.5916 594.833 87.5916C579.067 87.2731 567.441 75.0101 567.441 59.7212ZM341.93 32.4879H351.485V77.5582H379.833V86.1583H341.93V32.4879ZM314.696 64.8175L305.459 43.3175L296.222 64.8175H314.696ZM301 32.0101H309.919L333.807 85.999H323.933L318.519 73.099H292.559L286.826 85.999H277.27L301 32.0101ZM250.833 58.7657C257.681 58.7657 261.822 55.1027 261.822 49.8471C261.822 44.1138 257.681 40.9286 250.833 40.9286H237.137V58.7657H250.833ZM227.581 32.4879H251.789C258.637 32.4879 264.052 34.5582 267.396 37.9027C270.104 40.9286 271.856 44.7509 271.856 49.5286V49.8471C271.856 58.4471 266.441 63.862 258.956 66.2509L273.607 86.636H262.3L248.922 67.8435H236.978V86.636H227.422V32.6472H227.581V32.4879ZM174.707 32.4879H215V40.9286H184.263V54.9434H211.496V63.3842H184.263V77.7175H215.319V86.1583H174.707V32.4879ZM115.622 32.4879H124.222L153.207 69.5953V32.4879H162.763V85.999H154.641L124.7 47.7768V85.999H115.463V32.4879H115.622ZM63.0667 32.4879H103.041V40.9286H72.3037V54.9434H99.537V63.3842H72.3037V77.7175H103.359V86.1583H63.0667V32.4879ZM0 59.4027C0 44.1138 11.6259 31.373 27.7111 31.373C37.2667 31.373 43 34.0805 48.5741 38.8583L42.5222 46.0249C38.3815 42.362 34.0815 40.2916 27.2333 40.2916C17.3593 40.2916 9.55556 48.8916 9.55556 59.0842V59.4027C9.55556 70.3916 17.0407 78.5138 27.7111 78.5138C32.8074 78.5138 37.2667 77.0805 40.9296 74.373V64.1805H26.2778V56.0582H50.1667V78.8323C44.7519 83.2916 36.9482 87.2731 27.7111 87.2731C10.9889 86.9545 0 75.0101 0 59.4027Z" fill="black"/>
<path d="M474.275 0C439.557 0 411.527 28.9852 411.527 64.5C411.527 100.015 439.557 129 474.275 129C508.994 129 537.024 100.015 537.024 64.5C537.024 62.4296 537.024 60.3593 536.705 58.2889H474.275C470.931 58.2889 468.224 60.9963 468.224 64.5C468.224 68.0037 470.931 70.7111 474.275 70.7111H524.761L524.442 71.9852C520.938 97.3074 499.438 116.737 474.275 116.737C446.246 116.737 423.472 93.4852 423.472 64.8185C423.472 36.1518 446.246 12.9 474.275 12.9C493.387 12.9 511.383 24.2074 519.664 42.2037H532.883C523.805 16.7222 500.553 0 474.275 0ZM475.072 27.7111C455.324 27.7111 439.557 43.3185 439.557 62.5889C439.557 81.8592 455.642 97.4666 475.072 97.4666C485.583 97.4666 495.457 93.0074 502.305 85.2037H475.072C462.172 85.2037 451.82 75.0111 451.82 62.4296C451.82 49.8481 462.331 39.6555 474.753 39.6555H501.987C495.457 32.3296 485.583 27.7111 475.072 27.7111Z" fill="black"/>
</svg>
