<svg width="947" height="111" viewBox="0 0 947 111" fill="none" xmlns="http://www.w3.org/2000/svg">
<path d="M0 0V109.475H12.7841V66.5641H13.0929L41.1561 109.475H57.374L26.5069 65.8073L52.6927 32.9036H37.1048L13.0929 65.9634H12.7841V0H0Z" fill="black"/>
<path d="M110.386 109.475V57.6144C110.386 48.2081 107.261 41.541 96.3547 41.541C83.5708 41.541 80.2976 51.5478 80.2976 64.4377V109.475H67.5137V0H80.2976V42.7663H80.9277C86.0657 33.8166 91.995 31.3899 102.284 31.3899C115.686 31.3899 123.171 37.913 123.171 55.1877V109.475H110.386Z" fill="black"/>
<path d="M141.9 72.3307C141.9 49.8906 144.544 31.3906 171.829 31.3906C199.114 31.3906 201.77 49.8906 201.77 72.3307C201.77 106.147 188.516 110.989 171.829 110.989C155.142 110.989 141.9 106.135 141.9 72.3307ZM188.356 67.021C188.356 46.0945 181.649 41.5536 171.829 41.5536C162.009 41.5536 155.302 46.1065 155.302 67.021C155.302 91.8882 158.575 100.837 171.829 100.837C185.083 100.837 188.356 91.8882 188.356 67.021Z" fill="black"/>
<path d="M243.706 110.988C226.71 110.988 216.113 103.708 216.581 86.1214H231.083C231.083 90.5177 231.243 100.825 244.175 100.825C251.821 100.825 257.738 97.0412 257.738 89.1485C257.738 75.502 218.447 75.2016 218.447 52.3046C218.447 44.2679 223.437 31.3779 245.571 31.3779C259.603 31.3779 271.609 37.901 270.51 53.0614H256.317C256.478 45.0247 252.105 40.7841 244.003 40.7841C237.147 40.7841 231.836 44.4241 231.836 51.0913C231.836 64.5819 271.127 64.2815 271.127 87.6349C271.127 104.465 259.282 110.988 243.694 110.988" fill="black"/>
<path d="M300.626 0H287.842V109.475H300.626V0Z" fill="black"/>
<path d="M361.745 98.4111H361.436C357.545 107.204 351.456 111 341.636 111C324.948 111 320.119 100.537 320.119 85.8335C320.119 62.6364 343.501 61.5792 361.436 62.0238C361.745 51.8727 361.905 40.7968 348.183 40.7968C339.61 40.7968 335.089 46.4068 335.867 54.4435H321.996C322.614 37.313 331.977 31.3906 348.651 31.3906C368.921 31.3906 374.22 41.5536 374.22 54.4435V91.2875C374.22 97.354 374.838 103.577 375.777 109.487H361.745V98.4229V98.4111ZM332.903 86.7346C332.903 94.1585 336.646 100.837 345.218 100.837C353.012 100.837 362.683 96.1408 361.436 71.4179C349.281 71.5739 332.903 70.5051 332.903 86.7346Z" fill="black"/>
<path d="M421.633 32.9023H435.973L453.587 97.7968H453.908L472.93 32.9023H486.331L461.702 109.473H445.015L421.633 32.9023Z" fill="black"/>
<path d="M510.825 75.2141C510.825 96.5973 516.754 100.837 526.722 100.837C535.454 100.837 539.975 94.0142 540.444 86.2782H554.476C554.316 103.264 543.569 111 527.03 111C510.491 111 497.09 106.147 497.09 72.3307C497.09 49.8906 499.745 31.3906 527.03 31.3906C549.473 31.3906 555.094 43.3675 555.094 68.6912V75.2141H510.813H510.825ZM541.532 65.8078C541.532 43.5237 535.145 40.7848 525.783 40.7848C517.68 40.7848 510.973 44.5809 510.813 65.8078H541.519H541.532Z" fill="black"/>
<path d="M617.468 109.475V56.4011C617.468 48.2202 614.503 41.541 603.597 41.541C589.565 41.541 587.539 53.6741 587.539 64.1374V109.475H574.755V48.8208C574.755 43.5111 574.446 38.2134 573.977 32.9036H587.539V42.7543H588.169C593.159 34.1169 599.076 31.3779 609.216 31.3779C626.052 31.3779 630.264 41.2286 630.264 56.389V109.463H617.48L617.468 109.475Z" fill="black"/>
<path d="M652.562 32.9009V18.197L665.346 12.5869V32.9009H682.492V42.3071H665.346V89.158C665.346 94.0113 665.346 100.222 677.04 100.222C677.98 100.222 680.004 99.9217 682.812 99.609V109.16C678.6 109.46 674.389 110.373 670.177 110.373C658.02 110.373 652.562 105.519 652.562 96.7262V42.3071H639.629V32.9009H652.562Z" fill="black"/>
<path d="M735.043 32.9023H747.828V93.5559C747.828 98.8657 748.141 104.164 748.605 109.473H735.043V100.223H734.573C730.361 107.202 722.879 110.987 714.626 110.987C700.907 110.987 693.418 104.32 693.418 91.2733V32.9023H706.203V85.9759C706.203 95.2255 710.577 101.436 719.621 101.436C726.47 101.436 735.043 96.4269 735.043 83.6933V32.9023Z" fill="black"/>
<path d="M782.593 44.4247H782.907C788.202 32.7481 794.751 31.3906 807.222 31.3906V44.2805C806.138 44.1244 804.891 43.9802 803.794 43.8241C802.704 43.6679 801.607 43.5237 800.373 43.5237C786.178 43.5237 782.593 53.9871 782.593 64.2942V109.475H769.809V32.9042H782.593V44.4247Z" fill="black"/>
<path d="M832.199 75.2141C832.199 96.5973 838.127 100.837 848.091 100.837C856.828 100.837 861.346 94.0142 861.816 86.2782H875.848C875.685 103.264 864.944 111 848.405 111C831.866 111 818.461 106.147 818.461 72.3307C818.461 49.8906 821.118 31.3906 848.405 31.3906C870.846 31.3906 876.468 43.3675 876.468 68.6912V75.2141H832.186H832.199ZM862.907 65.8078C862.907 43.5237 856.514 40.7848 847.158 40.7848C839.055 40.7848 832.342 44.5809 832.186 65.8078H862.894H862.907Z" fill="black"/>
<path d="M919.345 110.988C902.356 110.988 891.752 103.708 892.222 86.1214H906.724C906.724 90.5177 906.887 100.825 919.815 100.825C927.448 100.825 933.377 97.0412 933.377 89.1485C933.377 75.502 894.09 75.2016 894.09 52.3046C894.09 44.2679 899.078 31.3779 921.213 31.3779C935.244 31.3779 947.252 37.901 946.148 53.0614H931.96C932.123 45.0247 927.749 40.7841 919.646 40.7841C912.79 40.7841 907.481 44.4241 907.481 51.0913C907.481 64.5819 946.769 64.2815 946.769 87.6349C946.769 104.465 934.924 110.988 919.326 110.988" fill="black"/>
</svg>
