<svg width="838" height="168" viewBox="0 0 838 168" fill="none" xmlns="http://www.w3.org/2000/svg">
<path fill-rule="evenodd" clip-rule="evenodd" d="M0 167.049H167.049V0H0V167.049Z" fill="black"/>
<path fill-rule="evenodd" clip-rule="evenodd" d="M90.3105 91.8245V128.941H76.2157V91.8245L40.248 38.1079H57.4228L83.3153 77.782L109.103 38.1079H126.278L90.3105 91.8245Z" fill="white"/>
<path fill-rule="evenodd" clip-rule="evenodd" d="M265.01 56.0228C249.558 56.0228 237.969 67.9772 237.969 83.4292C237.969 98.8813 249.558 110.94 265.01 110.94C274.929 110.94 283.542 105.824 288.188 97.2108L301.448 105.093C294.035 117.779 280.149 126.027 265.01 126.027C241.206 125.974 222.309 107.077 222.309 83.4292C222.309 59.7292 241.206 40.8318 265.01 40.8318C280.306 40.8318 294.035 48.9754 301.448 61.7651L288.188 69.6477C283.49 61.0343 274.929 56.0228 265.01 56.0228Z" fill="black"/>
<path fill-rule="evenodd" clip-rule="evenodd" d="M352.399 94.1826C352.399 84.5251 345.351 77.2168 336.268 77.2168C326.924 77.2168 319.877 84.5251 319.877 94.1826C319.877 103.84 326.924 111.149 336.268 111.149C345.195 111.149 352.399 103.84 352.399 94.1826ZM304.686 94.1826C304.686 76.7469 318.676 62.7566 336.268 62.7566C353.6 62.7566 367.59 76.7469 367.59 94.1826C367.59 111.618 353.6 125.609 336.268 125.609C318.676 125.609 304.686 111.618 304.686 94.1826Z" fill="black"/>
<path fill-rule="evenodd" clip-rule="evenodd" d="M466.147 89.172V124.252H451.008V91.8343C451.008 82.7511 446.571 77.0088 439.889 77.0088C433.051 77.0088 428.039 82.7511 428.039 91.8343V124.252H413.422V91.8343C413.422 82.7511 408.829 77.0088 402.094 77.0088C395.36 77.0088 390.453 82.7511 390.453 91.8343V124.252H375.314V64.2191H390.453V71.8929C394.16 66.1506 399.902 62.5486 406.949 62.5486C414.623 62.5486 420.679 66.8814 424.385 73.6156C428.196 67.6123 435.243 62.5486 444.118 62.5486C457.429 62.5486 466.147 74.2942 466.147 89.172Z" fill="black"/>
<path fill-rule="evenodd" clip-rule="evenodd" d="M519.968 94.8098C519.968 84.7869 513.756 77.5829 505.038 77.5829C496.529 77.5829 490.108 84.4215 490.108 94.6532C490.108 104.833 496.686 111.724 505.299 111.724C513.756 111.671 519.968 104.624 519.968 94.8098ZM508.222 125.818C499.87 125.818 493.71 122.007 490.16 116.735V124.252H475.021V40.7278H490.16V71.5274C493.814 66.6203 499.974 63.0706 507.961 63.0706C523.466 63.0706 535.316 76.4345 535.577 94.4444C535.838 112.663 523.727 125.818 508.222 125.818Z" fill="black"/>
<path fill-rule="evenodd" clip-rule="evenodd" d="M541.842 124.252H556.98V64.2187H541.842V124.252ZM539.91 47.2006C539.91 42.0847 544.191 38.2217 549.359 38.2217C554.37 38.2217 558.547 42.0325 558.547 47.2006C558.547 52.3164 554.37 56.1794 549.359 56.1794C544.243 56.1272 539.91 52.3164 539.91 47.2006Z" fill="black"/>
<path fill-rule="evenodd" clip-rule="evenodd" d="M622.235 89.433V124.252H607.619V92.6696C607.619 83.0121 602.555 77.0088 595.247 77.0088C587.207 77.0088 581.517 84.3171 581.517 92.9306V124.252H566.9V64.2191H581.517V71.7885C585.589 66.1506 592.114 62.5486 599.736 62.5486C613.204 62.5486 622.235 74.0332 622.235 89.433Z" fill="black"/>
<path fill-rule="evenodd" clip-rule="evenodd" d="M668.173 97.6288V96.3237L652.878 99.2993C647.762 100.5 644.63 103.11 644.63 106.608C644.63 110.314 648.023 113.081 653.609 112.924C661.648 112.663 668.173 105.668 668.173 97.6288ZM682.79 88.0235V124.252H668.173V117.309C663.736 122.112 656.793 125.662 649.119 125.818C638.94 125.818 629.961 119.136 629.961 107.652C629.961 96.7936 638.105 90.5814 650.216 88.1801L667.808 84.8391C666.607 79.8277 662.796 76.0169 657.002 76.0169C651.26 76.0169 645.883 79.6189 642.646 84.1605L631.631 76.1735C637.269 68.2909 647.188 63.0184 657.054 63.0184C671.775 62.914 682.79 73.0935 682.79 88.0235Z" fill="black"/>
<path fill-rule="evenodd" clip-rule="evenodd" d="M713.587 77.7917V102.953C713.587 107.86 715.727 110.105 720.165 110.105H727.682V124.2H718.077C705.287 124.2 698.97 117.936 698.97 104.78V77.7917H688.008V64.2189H698.448V49.3934L713.587 44.7473V64.2189H727.682V77.7917H713.587Z" fill="black"/>
<path fill-rule="evenodd" clip-rule="evenodd" d="M780.356 94.1826C780.356 84.5251 773.309 77.2168 764.225 77.2168C754.881 77.2168 747.834 84.5251 747.834 94.1826C747.834 103.84 754.881 111.149 764.225 111.149C773.152 111.149 780.356 103.84 780.356 94.1826ZM732.643 94.1826C732.643 76.7469 746.633 62.7566 764.225 62.7566C781.557 62.7566 795.547 76.7469 795.547 94.1826C795.547 111.618 781.557 125.609 764.225 125.609C746.633 125.609 732.643 111.618 732.643 94.1826Z" fill="black"/>
<path fill-rule="evenodd" clip-rule="evenodd" d="M837.309 62.9136V77.4781C823.788 77.4781 817.994 84.0557 817.994 92.6691V124.252H803.377V64.2186H817.994V71.7358C822.118 66.359 828.747 62.9136 837.309 62.9136Z" fill="black"/>
</svg>
